<?xml version="1.0" encoding="UTF-8"?>
<svg width="25px" height="26px" viewBox="0 0 25 26" version="1.1" xmlns="http://www.w3.org/2000/svg" xmlns:xlink="http://www.w3.org/1999/xlink">
    <!-- Generator: Sketch 51.3 (57544) - http://www.bohemiancoding.com/sketch -->
    <title>Icon</title>
    <desc>Created with Sketch.</desc>
    <defs></defs>
    <g id="Symbols" stroke="none" stroke-width="1" fill-rule="evenodd">
        <g id="UI/Nav/Tab-Bar/Item" transform="translate(-22.000000, -5.000000)">
            <g id="UI/Nav/Tab-Bar/Icons/Unselected/Create" transform="translate(11.000000, 2.000000)">
                <g id="magic-wand" transform="translate(11.000000, 3.000000)">
                    <path d="M22.8293992,10.9983509 C23.0249569,11.2604299 23.0548295,11.6108438 22.9063904,11.9020769 C22.7579513,12.19331 22.4545546,12.3736241 22.1300623,12.3710064 L18.8032715,12.3285071 L16.8822891,15.0449205 C16.7197863,15.2747144 16.4570409,15.4079097 16.1811557,15.4079097 C15.804104,15.4079097 15.4722205,15.1624609 15.3607372,14.8038859 L14.661195,12.5535275 L1.46628503,25.7484303 C1.13085993,26.0838566 0.586993923,26.0838566 0.251568824,25.7484303 C-0.0838562747,25.4130041 -0.0838562747,24.869085 0.251568824,24.5337101 L13.4464274,11.3389612 L11.1960253,10.6393653 C10.8838515,10.5422534 10.6537504,10.2763761 10.6026283,9.95347384 C10.5515061,9.63046891 10.6881398,9.30654008 10.9550941,9.11775696 L13.6714984,7.19676816 L13.628948,3.86996623 C13.6247904,3.54300907 13.806541,3.24212636 14.0978758,3.09363545 C14.3892106,2.94514455 14.739572,2.97506857 15.0014962,3.17057561 L17.6680102,5.16034347 L20.8186964,4.09195834 C21.1283551,3.98694195 21.4707607,4.06685911 21.7019397,4.29803887 C21.9331187,4.52921863 22.0130356,4.87167674 21.9080196,5.18128515 L20.839638,8.33203323 L22.8293992,10.9983509 Z M8.70708889,3.29291111 L10,3.99997353 L8.70708889,4.70714182 L7.99997353,6 L7.29291111,4.70714182 L6,3.99997353 L7.29291111,3.29291111 L7.99997353,2 L8.70708889,3.29291111 Z M18.0303472,19.9697178 L19,20.5000245 L18.0303472,21.0303804 L17.5,22 L16.9697019,21.0303804 L16,20.5000245 L16.9697019,19.9697178 L17.5,19 L18.0303472,19.9697178 Z M19.0302981,0.969652848 L20,1.5 L19.0302981,2.03034715 L18.5,3 L17.9696528,2.03034715 L17,1.5 L17.9696528,0.969652848 L18.5,0 L19.0302981,0.969652848 Z M24.3536165,7.64645581 L25,7.99997266 L24.3536165,8.35354419 L24,9 L23.6464928,8.35354419 L23,7.99997266 L23.6464928,7.64645581 L24,7 L24.3536165,7.64645581 Z M25,15 L24.5606378,16.4999439 L25,18 L23.4999439,17.5606939 L22,18 L22.4393061,16.4999439 L22,15 L23.4999439,15.4393061 L25,15 Z" id="Path-2" fill-rule="nonzero"></path>
                </g>
            </g>
        </g>
    </g>
</svg>
