<?xml version="1.0" encoding="UTF-8"?>
<svg width="19px" height="25px" viewBox="0 0 19 25" version="1.1" xmlns="http://www.w3.org/2000/svg" xmlns:xlink="http://www.w3.org/1999/xlink">
    <!-- Generator: Sketch 51.3 (57544) - http://www.bohemiancoding.com/sketch -->
    <title>light</title>
    <desc>Created with Sketch.</desc>
    <defs></defs>
    <g id="Symbols" stroke="none" stroke-width="1" fill-rule="evenodd">
        <g id="UI/Nav/Tab-Bar/Icons/Unselected/Inspiration" transform="translate(-15.000000, -4.000000)" fill-rule="nonzero">
            <g id="light" transform="translate(15.000000, 4.000000)">
                <path d="M15.8137143,2.44279227 C13.7819957,0.605928032 11.0633972,-0.260308275 8.35925937,0.0684183072 C4.22294828,0.561216578 0.758676003,3.96589848 0.115558498,8.1471994 C-0.469145659,12.0151311 1.19725169,15.7932511 4.38353743,17.8690301 L4.38353743,18.7599549 C4.38353743,19.76052 5.02665489,20.5968191 5.90361604,20.8804454 C6.10834812,20.9550942 6.34219172,21 6.57603533,21 L7.30686796,21 L7.30686796,15.9128057 C5.75748757,15.166124 4.67598464,13.6727606 4.44195073,11.9404824 L3.65270475,11.9404824 C3.2434309,11.9404824 2.92187212,11.6119502 2.92187212,11.1938007 C2.92187212,10.7756512 3.2434309,10.447119 3.65270475,10.447119 L4.80746218,10.447119 L6.06439541,9.17770178 C6.34219172,8.87910686 6.80987898,8.87910686 7.08767525,9.17770178 L7.83296856,9.93935208 L8.84159751,7.87854171 C9.08990174,7.37077482 9.90863981,7.37077482 10.1571343,7.87854171 L11.165573,9.93935208 L11.9110566,9.17770178 C12.1888529,8.87910686 12.6563498,8.87910686 12.9341461,9.17770178 L14.1912696,10.447119 L15.3458368,10.447119 C15.7551107,10.447119 16.0766694,10.7756512 16.0766694,11.1938007 C16.0766694,11.6119502 15.7551107,11.9404824 15.3458368,11.9404824 L14.5565908,11.9404824 C14.3227472,13.6727606 13.241054,15.166124 11.6916736,15.9128057 L11.6916736,21 L12.4225062,21 C12.6563498,21 12.8903837,20.9552885 13.0949256,20.8806398 C13.9718867,20.5968191 14.6150042,19.76052 14.6150042,18.7601493 L14.6150042,17.8690301 C17.3337929,16.091846 19,13.0007276 19,9.70043728 C19,6.93765667 17.8454328,4.29462507 15.8137143,2.44279227 Z M13,11.580631 C12.9015605,13.0281968 11.987976,14.2984704 10.6667277,14.7859278 C10.3854981,14.8893803 10.202708,15.170125 10.202708,15.4802901 L10.202708,21 L8.79710904,21 L8.79710904,15.4802901 C8.79710904,15.170125 8.61450191,14.8893803 8.33327235,14.7861201 C7.01202396,14.2984704 6.09843952,13.0281968 6,11.580631 L6.68889353,10.8714622 L7.60247796,11.8169565 C7.75709022,11.9940564 7.98196409,12.0678961 8.20683796,12.0236692 C8.43171187,11.9940564 8.62859083,11.846377 8.72703035,11.6248579 L9.50009148,10 L10.2731527,11.6248579 C10.3714092,11.846377 10.5682882,11.9940564 10.793162,12.0236692 C10.8354288,12.0384756 10.8634237,12.0384756 10.9056905,12.0384756 C11.0882976,12.0384756 11.2710877,11.9646359 11.397522,11.8167643 L12.3112894,10.8714622 L13,11.580631 Z M13,22 C12.6700545,23.7101015 11.2358088,25 9.5,25 C7.76437797,25 6.32994559,23.7101015 6,22 L13,22 Z" id="Shape"></path>
            </g>
        </g>
    </g>
</svg>
