<?xml version="1.0" encoding="UTF-8"?>
<svg width="23px" height="25px" viewBox="0 0 23 25" version="1.1" xmlns="http://www.w3.org/2000/svg" xmlns:xlink="http://www.w3.org/1999/xlink">
    <!-- Generator: Sketch 51.3 (57544) - http://www.bohemiancoding.com/sketch -->
    <title>movie-clapper-open</title>
    <desc>Created with Sketch.</desc>
    <defs></defs>
    <g id="Symbols" stroke="none" stroke-width="1" fill-rule="evenodd">
        <g id="UI/Nav/Tab-Bar/Icons/Unselected/Movie" transform="translate(-12.000000, -4.000000)" fill-rule="nonzero">
            <g id="movie-clapper-open" transform="translate(12.000000, 4.000000)">
                <path d="M4.59902454,10.5695995 C4.55512892,10.1878129 4.4242259,9.83332886 4.22686979,9.52831403 L21.9063545,3.42116916 L20.9783627,0.545289269 C20.8434533,0.127369387 20.4065003,-0.0981703848 20.0028173,0.0412263502 L0.771395897,6.6844224 C0.367712937,6.82381913 0.149279956,7.27579976 0.284189321,7.69371964 L0.739258031,9.10363607 C0.284973171,9.54002804 0,10.1625827 0,10.8530786 C0,11.7473082 0.477800372,12.5278218 1.18291736,12.9370012 L1.18291736,24.2022758 C1.18291736,24.642993 1.5284212,25 1.95405198,25 L22.2290396,25 C22.6544962,25 23,24.6429029 23,24.2022758 L23,10.5695995 L4.59902454,10.5695995 Z M15.8673967,2.4080874 L18.2080612,1.59955029 L17.6448211,3.95496765 L15.3041567,4.76350475 L15.8673967,2.4080874 Z M10.0844097,4.40568676 L12.4252483,3.59714966 L11.8620082,5.95247691 L9.52134383,6.76110412 L10.0844097,4.40568676 Z M2.30782979,12.0696237 C1.6596726,12.0696237 1.13222837,11.523931 1.13222837,10.8531687 C1.13222837,10.1824064 1.6596726,9.63671369 2.30782979,9.63671369 C2.95616118,9.63671369 3.48360541,10.1824064 3.48360541,10.8531687 C3.48360541,11.523931 2.95616118,12.0696237 2.30782979,12.0696237 Z M4.30168395,6.40328613 L6.64252256,5.59474902 L6.07928249,7.95016638 L3.73844389,8.75879359 L4.30168395,6.40328613 Z M6.60115268,13.2631914 L4.1334174,13.2631914 L5.38862319,11.2135998 L7.85635847,11.2135998 L6.60115268,13.2631914 Z M11.4852375,11.2135998 L13.9529728,11.2135998 L12.697767,13.2631914 L10.2300317,13.2631914 L11.4852375,11.2135998 Z M10.8794953,21.1187876 L10.8794953,15.7123208 L15.0411313,18.4155542 L10.8794953,21.1187876 Z M18.7943813,13.2631914 L16.326646,13.2631914 L17.5818518,11.2135998 L20.0495871,11.2135998 L18.7943813,13.2631914 Z" id="_x30_6-Movie_Clapper"></path>
            </g>
        </g>
    </g>
</svg>
