<?xml version="1.0" encoding="UTF-8"?>
<svg width="15px" height="23px" viewBox="0 0 15 15" version="1.1" xmlns="http://www.w3.org/2000/svg" xmlns:xlink="http://www.w3.org/1999/xlink">
    <!-- Generator: Sketch 51.3 (57544) - http://www.bohemiancoding.com/sketch -->
    <title>settings-gears</title>
    <desc>Created with Sketch.</desc>
    <defs></defs>
    <g id="Symbols" stroke="none" stroke-width="1" fill-rule="evenodd">
        <g id="UI/Nav/Tab-Bar/Icons/Unselected/Settings" transform="translate(-11.000000, 0.000000)" fill-rule="nonzero">
            <g id="settings-gears" transform="translate(11.000000, 0.000000)">
                <path d="M1.66151432,9.14557386 C1.79454623,9.60176503 1.97916195,10.0416636 2.21264654,10.454408 L1.54748696,11.2934739 C1.330292,11.5677317 1.35472643,11.9587527 1.59907077,12.2058563 L2.7447742,13.351765 C2.99183347,13.5988686 3.3827844,13.6205648 3.65699304,13.4033309 L4.49047872,12.743483 C4.91943877,12.9906137 5.37554819,13.1833816 5.85066217,13.3191528 L5.97554928,14.3917451 C6.01627333,14.7393193 6.30948653,15 6.65699847,15 L8.27781589,15 C8.62532783,15 8.91854103,14.7392922 8.95926508,14.3917451 L9.07872231,13.3571687 C9.58913048,13.224113 10.0778191,13.025887 10.5366435,12.7679218 L11.3429798,13.4060463 C11.6171884,13.6232802 12.0081394,13.5988414 12.2551987,13.3544533 L13.4009021,12.2085445 C13.6479614,11.961441 13.6696809,11.57042 13.4524859,11.2961622 L12.8253354,10.5005431 C13.0859694,10.0497556 13.2895897,9.56915279 13.4253365,9.06679942 L14.3918541,8.95546705 C14.7393932,8.9147357 15,8.62146995 15,8.27389573 L15,6.65278783 C15,6.30521361 14.739366,6.01194786 14.3918541,5.97121651 L13.4389112,5.85988414 C13.3085671,5.36296162 13.1131188,4.88776249 12.8633717,4.44243302 L13.4497981,3.70112238 C13.6669931,3.42686459 13.6425586,3.03584359 13.3982143,2.78874004 L12.2552258,1.64554671 C12.0081665,1.39844316 11.6172156,1.37671977 11.343007,1.59395366 L10.6235486,2.16419261 C10.1565795,1.88993483 9.6570039,1.68084721 9.1330482,1.53964518 L9.02445072,0.608254888 C8.98372667,0.260680666 8.69051347,0 8.34300153,0 L6.72218411,0 C6.37467217,0 6.08145897,0.260680666 6.04073492,0.608254888 L5.93213743,1.53964518 C5.3945799,1.68356264 4.8814568,1.90079652 4.40362788,2.185916 L3.65702019,1.59395366 C3.38281155,1.37671977 2.99186062,1.40115858 2.74480135,1.64554671 L1.59909792,2.79145547 C1.35203865,3.03855902 1.33031915,3.42958001 1.54751411,3.7038378 L2.17194963,4.49402607 C1.92217542,4.94478639 1.73212983,5.42541636 1.60724273,5.92505431 L0.608145897,6.0391021 C0.260633956,6.07983345 0,6.3730992 0,6.72067343 L0,8.34178132 C0,8.68935554 0.260633956,8.98262129 0.608145897,9.02335264 L1.66151432,9.14557386 Z M7.53392314,4.76016474 C9.01084889,4.76016474 10.213566,5.96309739 10.213566,7.44028783 C10.213566,8.91747828 9.01084889,10.1204109 7.53392314,10.1204109 C6.05702454,10.1204109 4.85428028,8.91747828 4.85428028,7.44028783 C4.85428028,5.96309739 6.05699739,4.76016474 7.53392314,4.76016474 Z" id="Shape"></path>
            </g>
        </g>
    </g>
</svg>
